<svg width="95" height="94" viewBox="0 0 95 94" fill="none" xmlns="http://www.w3.org/2000/svg">
<path d="M80.5087 38.2L83.7087 36.2C86.6087 36.1 90.8087 36.3 92.6087 36.7C93.7087 36.9 94.4087 37.7 94.5087 38.7C94.6087 40.7 94.0087 42.6 93.3087 43.2C92.7087 43.8 91.6087 44 90.7087 44L74.4087 44.4V50.8C74.4087 58.3 73.2087 67.6 71.1087 73.2H65.6087C65.0087 69.3 64.7087 58.7 64.7087 53.8V9.2C63.1087 7.00001 60.0087 5 56.6087 3.7L57.6087 0.600004C57.8087 0.200003 58.1087 0 59.0087 0C63.2087 0.200003 70.2087 1.6 73.4087 3C74.3087 3.4 74.7087 4.20001 74.7087 5.4L74.4087 11V38.5L80.5087 38.2ZM66.7087 87.6L70.4087 85.6C73.6087 85.6 78.3087 85.9 80.5087 86.4C81.5087 86.6 82.1087 87.3 82.1087 88.2C82.1087 90.6 81.3087 92.3 80.7087 92.9C80.3087 93.3 79.7087 93.4 79.1087 93.4L37.2087 93.7C30.0087 93.7 27.4087 91 27.4087 85.2V76.2C25.8087 74.9 23.1087 73.6 20.4087 72.9L21.0087 70.2C21.1087 69.7 21.6087 69.4 22.3087 69.4C26.2087 69.4 32.9087 69.9 35.8087 70.5C36.9087 70.8 37.5087 71.5 37.5087 72.8L37.3087 77.7V85.4C37.3087 87.2 38.0087 87.9 39.8087 87.9C45.9087 88 61.0087 87.9 66.7087 87.6ZM52.2087 47.1C52.2087 57.1 42.8087 63.6 31.2087 63.6C19.6087 63.6 10.2087 57.1 10.2087 47.1C10.2087 37.2 19.6087 30.8 31.2087 30.8C42.8087 30.8 52.2087 37.2 52.2087 47.1ZM19.6087 47.1C19.6087 53.5 24.8087 57.3 31.2087 57.3C37.7087 57.3 42.9087 53.5 42.9087 47.1C42.9087 40.6 37.7087 36.9 31.2087 36.9C24.8087 36.9 19.6087 40.6 19.6087 47.1ZM45.9087 21.1L49.1087 19.5C52.1087 19.7 56.5087 20.3 58.4087 20.9C59.1087 21.2 59.5087 21.9 59.5087 22.6C59.5087 24.7 58.2087 26.6 57.3087 27.1C55.4087 26.9 50.4087 26.8 48.1087 26.8C44.2087 26.8 20.3087 27.3 16.5087 27.6C14.5087 27.7 10.8087 28.4 9.00874 29C6.00874 27.7 2.70874 25.4 0.608739 23.4C0.308739 23.1 0.208739 22.7 0.408739 22.3L1.10874 21C4.10874 21.5 8.30874 21.8 10.8087 21.8C15.0087 21.9 41.3087 21.4 45.9087 21.1ZM15.1087 7.2L15.9087 6.2C24.8087 7.7 34.0087 8.1 40.6087 8.1C41.6087 8.1 42.1087 8.3 42.4087 9C43.1087 10.3 43.0087 13.2 42.1087 14.2C41.7087 14.7 41.1087 14.8 40.4087 14.8C35.6087 14.8 28.1087 15 23.8087 15.3C22.7087 15.4 22.1087 15.4 21.5087 14.9C19.4087 13.6 16.8087 10.9 15.1087 8.40001C14.9087 7.90001 14.9087 7.5 15.1087 7.2Z" fill="#181818"/>
</svg>
