<svg width="559" height="45" viewBox="0 0 559 45" fill="none" xmlns="http://www.w3.org/2000/svg">
<path d="M17.1172 1.98438V5.92188H4.69531V15.4609H16.6484V19.3516H4.69531V34H0.125V1.98438H17.1172ZM22.5078 10.5391H26.5391L26.75 14.7109C27.4531 13.2422 28.3672 12.1328 29.4922 11.3828C30.6328 10.6172 31.9531 10.2344 33.4531 10.2344C34.2344 10.2344 35.0234 10.3359 35.8203 10.5391V14.5234C35.0703 14.2578 34.3828 14.125 33.7578 14.125C32.2422 14.125 30.9844 14.5703 29.9844 15.4609C28.9844 16.3359 28.2578 17.4609 27.8047 18.8359C27.3516 20.1953 27.125 21.6172 27.125 23.1016V24.7891V34H22.8125V19.7031C22.8125 17.3906 22.7109 14.3359 22.5078 10.5391ZM59.9844 10.5859V25.3516C59.9844 26.6328 60.0938 29.5156 60.3125 34H56.2812L56.0938 30.3438C55.1406 31.6719 54 32.6719 52.6719 33.3438C51.3438 34 49.8438 34.3281 48.1719 34.3281C44.9062 34.3281 42.6406 33.3125 41.375 31.2812C40.1094 29.25 39.4766 26.4922 39.4766 23.0078V10.5859H43.8359V21.4609C43.8359 22.3203 43.8516 23.2109 43.8828 24.1328C43.9297 25.0547 43.9922 25.7734 44.0703 26.2891C44.1484 26.8047 44.2656 27.2812 44.4219 27.7188C44.8438 28.75 45.4453 29.5391 46.2266 30.0859C47.0234 30.6172 47.9609 30.8828 49.0391 30.8828C50.0391 30.8828 50.9453 30.6875 51.7578 30.2969C52.5703 29.8906 53.2656 29.3125 53.8438 28.5625C54.4219 27.8125 54.8672 26.9141 55.1797 25.8672C55.4922 24.8203 55.6484 23.6719 55.6484 22.4219V20.8516V10.5859H59.9844ZM73.25 3.76562V10.6328H79.4844V14.0312H73.25V23.2422C73.25 25.3516 73.3438 26.8906 73.5312 27.8594C73.6719 28.7031 74.0547 29.375 74.6797 29.875C75.3203 30.3594 76.1328 30.6016 77.1172 30.6016C78.0234 30.6016 78.9688 30.3594 79.9531 29.875V33.625C78.5781 34.0625 77.2344 34.2812 75.9219 34.2812C73.8906 34.2812 72.3594 33.8672 71.3281 33.0391C70.2969 32.2109 69.6328 31.125 69.3359 29.7812C69.0547 28.4375 68.9141 26.6953 68.9141 24.5547V14.0312H63.5V10.6328H68.9141V5.24219L73.25 3.76562ZM89.0469 0.109375V4.91406H84.2891V0.109375H89.0469ZM88.9531 10.5391V34H84.5703V10.5391H88.9531ZM116.375 10.4688V29.9219C116.375 32.25 116.234 34.2578 115.953 35.9453C115.688 37.6328 115.156 39.0859 114.359 40.3047C113.562 41.5391 112.406 42.4844 110.891 43.1406C109.375 43.7969 107.398 44.125 104.961 44.125C102.008 44.125 99.0312 43.6016 96.0312 42.5547L96.4531 38.3125C99.375 39.7188 102.18 40.4219 104.867 40.4219C106.461 40.4219 107.82 40.1172 108.945 39.5078C110.086 38.8984 110.914 38.0234 111.43 36.8828C111.742 36.2891 111.953 35.625 112.062 34.8906C112.172 34.1719 112.227 33.3281 112.227 32.3594C112.242 31.3906 112.266 30.6562 112.297 30.1562C110.531 32.75 107.922 34.0469 104.469 34.0469C102.438 34.0469 100.641 33.5625 99.0781 32.5938C97.5156 31.625 96.3047 30.2656 95.4453 28.5156C94.5859 26.75 94.1562 24.7031 94.1562 22.375C94.1562 20.0156 94.5859 17.8984 95.4453 16.0234C96.3047 14.1484 97.5 12.7031 99.0312 11.6875C100.578 10.6562 102.359 10.1406 104.375 10.1406C106.203 10.1406 107.828 10.5469 109.25 11.3594C110.688 12.1719 111.703 13.2578 112.297 14.6172C112.312 14.4922 112.32 14.3828 112.32 14.2891C112.336 14.1953 112.344 14.1094 112.344 14.0312L112.297 13.3984V10.4688H116.375ZM105.383 13.8438C104.117 13.8438 102.977 14.2109 101.961 14.9453C100.945 15.6641 100.156 16.6719 99.5938 17.9688C99.0312 19.25 98.75 20.7031 98.75 22.3281C98.75 23.9062 99.0234 25.3047 99.5703 26.5234C100.133 27.7266 100.906 28.6641 101.891 29.3359C102.875 30.0078 103.992 30.3438 105.242 30.3438C106.242 30.3438 107.164 30.1484 108.008 29.7578C108.852 29.3516 109.578 28.7812 110.188 28.0469C110.812 27.3125 111.289 26.4453 111.617 25.4453C111.945 24.4453 112.109 23.3438 112.109 22.1406C112.109 20.6094 111.812 19.2109 111.219 17.9453C110.641 16.6641 109.828 15.6641 108.781 14.9453C107.75 14.2109 106.617 13.8438 105.383 13.8438ZM124.086 12.2969C125.367 11.5469 126.633 11 127.883 10.6562C129.148 10.3125 130.5 10.1406 131.938 10.1406C134.141 10.1406 135.984 10.5625 137.469 11.4062C138.969 12.2344 140.008 13.4141 140.586 14.9453C141.07 16.2266 141.312 18.3984 141.312 21.4609V26.0312C141.312 27.7969 141.328 29.3438 141.359 30.6719C141.406 31.9844 141.469 33.0938 141.547 34H137.562C137.531 33.4531 137.516 32.8438 137.516 32.1719C137.516 31.3438 137.531 30.6094 137.562 29.9688C136.656 31.4844 135.578 32.5938 134.328 33.2969C133.078 33.9844 131.531 34.3281 129.688 34.3281C128.062 34.3281 126.625 34.0391 125.375 33.4609C124.141 32.8828 123.188 32.0625 122.516 31C121.859 29.9219 121.531 28.6797 121.531 27.2734C121.531 26.0391 121.797 24.9531 122.328 24.0156C122.875 23.0625 123.672 22.2578 124.719 21.6016C125.766 20.9297 127.047 20.4297 128.562 20.1016C130.078 19.7734 131.828 19.6094 133.812 19.6094C135 19.6094 136.094 19.6406 137.094 19.7031C137.062 17.6875 136.57 16.2109 135.617 15.2734C134.664 14.3203 133.203 13.8438 131.234 13.8438C129.953 13.8438 128.781 14.0234 127.719 14.3828C126.656 14.7266 125.523 15.2969 124.32 16.0938L124.086 12.2969ZM137.188 22.9141C136.219 22.8203 135.43 22.7734 134.82 22.7734C129.039 22.7734 126.148 24.2578 126.148 27.2266C126.148 27.9453 126.336 28.5781 126.711 29.125C127.086 29.6719 127.617 30.1016 128.305 30.4141C128.992 30.7266 129.773 30.8828 130.648 30.8828C132.258 30.8828 133.547 30.5312 134.516 29.8281C135.484 29.125 136.172 28.1797 136.578 26.9922C136.984 25.8047 137.188 24.4453 137.188 22.9141ZM148.227 10.5391H152.258L152.469 14.7109C153.172 13.2422 154.086 12.1328 155.211 11.3828C156.352 10.6172 157.672 10.2344 159.172 10.2344C159.953 10.2344 160.742 10.3359 161.539 10.5391V14.5234C160.789 14.2578 160.102 14.125 159.477 14.125C157.961 14.125 156.703 14.5703 155.703 15.4609C154.703 16.3359 153.977 17.4609 153.523 18.8359C153.07 20.1953 152.844 21.6172 152.844 23.1016V24.7891V34H148.531V19.7031C148.531 17.3906 148.43 14.3359 148.227 10.5391ZM194.211 1.98438L208.086 34H202.93L199.578 25.8906H184.016L180.711 34H175.766L189.406 1.98438H194.211ZM197.984 22L194.305 13.0703C193.57 11.3672 193.023 10.0312 192.664 9.0625C192.305 8.07812 191.984 7.03125 191.703 5.92188C191.469 6.78125 191.188 7.64062 190.859 8.5C190.547 9.34375 189.93 10.8984 189.008 13.1641L185.469 22H197.984ZM225.828 1.98438H233.422C234.922 1.98438 235.922 2 236.422 2.03125C236.922 2.04688 237.469 2.09375 238.062 2.17188C240.469 2.5 242.375 3.38281 243.781 4.82031C245.188 6.25781 245.891 8.04688 245.891 10.1875C245.891 12.25 245.289 13.8984 244.086 15.1328C242.883 16.3672 241.211 17.2344 239.07 17.7344C241.445 18.0625 243.328 18.8438 244.719 20.0781C246.109 21.3125 246.805 23.0859 246.805 25.3984C246.805 26.9609 246.422 28.3906 245.656 29.6875C244.891 30.9688 243.82 31.9766 242.445 32.7109C241.57 33.1797 240.555 33.5156 239.398 33.7188C238.258 33.9062 236.773 34 234.945 34H225.828V1.98438ZM230.398 5.92188V15.625H233.656C238.781 15.625 241.344 14.0078 241.344 10.7734C241.344 9.66406 241.07 8.76562 240.523 8.07812C239.977 7.39062 239.273 6.89844 238.414 6.60156C237.555 6.28906 236.695 6.10156 235.836 6.03906C234.992 5.96094 233.961 5.92188 232.742 5.92188H230.398ZM230.398 19.3516V30.1094H233.891C236.172 30.1094 238.109 29.7578 239.703 29.0547C241.297 28.3359 242.094 26.9766 242.094 24.9766C242.094 22.6328 241.211 21.1094 239.445 20.4062C237.695 19.7031 235.477 19.3516 232.789 19.3516H230.398ZM289.25 3.17969L288.875 7.5625C287.672 6.85938 286.57 6.375 285.57 6.10938C284.57 5.82812 283.445 5.6875 282.195 5.6875C280.43 5.6875 278.805 5.97656 277.32 6.55469C275.852 7.11719 274.57 7.9375 273.477 9.01562C272.383 10.0938 271.539 11.375 270.945 12.8594C270.352 14.3281 270.055 15.9531 270.055 17.7344C270.055 20.0781 270.586 22.2031 271.648 24.1094C272.727 26 274.203 27.4844 276.078 28.5625C277.969 29.625 280.078 30.1562 282.406 30.1562C284.578 30.1562 286.859 29.6797 289.25 28.7266L289.602 33.1328C288.352 33.5391 287.211 33.8281 286.18 34C285.164 34.1562 283.953 34.2344 282.547 34.2344C279.188 34.2344 276.188 33.5859 273.547 32.2891C270.922 30.9922 268.867 29.1094 267.383 26.6406C265.898 24.1562 265.156 21.2188 265.156 17.8281C265.156 14.7344 265.859 11.9688 267.266 9.53125C268.688 7.09375 270.68 5.19531 273.242 3.83594C275.82 2.47656 278.727 1.79688 281.961 1.79688C284.758 1.79688 287.188 2.25781 289.25 3.17969ZM308.234 1.98438H314.867C317.133 1.98438 318.922 2.0625 320.234 2.21875C322.375 2.42188 324.367 2.97656 326.211 3.88281C328.055 4.77344 329.609 5.91406 330.875 7.30469C332.156 8.69531 333.141 10.3047 333.828 12.1328C334.531 13.9453 334.883 15.9375 334.883 18.1094C334.883 19.8438 334.625 21.5078 334.109 23.1016C333.609 24.6953 332.898 26.1328 331.977 27.4141C331.055 28.6797 329.93 29.7891 328.602 30.7422C327.273 31.6797 325.797 32.4141 324.172 32.9453C323.359 33.2266 322.547 33.4375 321.734 33.5781C320.922 33.7188 320.023 33.8281 319.039 33.9062C318.07 33.9688 316.898 34 315.523 34H308.234V1.98438ZM312.805 5.92188V30.1094H315.148C317.258 30.1094 318.859 30.0312 319.953 29.875C321.047 29.7188 322.148 29.4141 323.258 28.9609C324.648 28.3516 325.844 27.5078 326.844 26.4297C327.859 25.3516 328.633 24.0859 329.164 22.6328C329.711 21.1797 329.984 19.625 329.984 17.9688C329.984 16.7031 329.805 15.4688 329.445 14.2656C329.086 13.0625 328.57 11.9688 327.898 10.9844C327.227 10 326.422 9.14062 325.484 8.40625C324.547 7.67188 323.516 7.11719 322.391 6.74219C321.672 6.46094 320.75 6.25781 319.625 6.13281C318.516 5.99219 317.039 5.92188 315.195 5.92188H312.805ZM372.5 1.98438V5.92188H359.258V15.3203H371.539V19.2578H359.258V30.1094H372.875V34H354.688V1.98438H372.5ZM410.352 1.98438V5.92188H397.93V15.4609H409.883V19.3516H397.93V34H393.359V1.98438H410.352ZM454.273 3.32031L453.969 7.75C452.688 7.03125 451.406 6.50781 450.125 6.17969C448.844 5.85156 447.406 5.6875 445.812 5.6875C443.281 5.6875 441.039 6.20312 439.086 7.23438C437.133 8.25 435.617 9.6875 434.539 11.5469C433.477 13.4062 432.945 15.5 432.945 17.8281C432.945 20.2656 433.484 22.4453 434.562 24.3672C435.656 26.2734 437.195 27.75 439.18 28.7969C441.164 29.8281 443.438 30.3438 446 30.3438C447.344 30.3438 448.789 30.125 450.336 29.6875V20.4062H443.469V16.5391H454.883V32.7578C453.273 33.2891 451.742 33.6719 450.289 33.9062C448.852 34.125 447.328 34.2344 445.719 34.2344C443.047 34.2344 440.625 33.8594 438.453 33.1094C436.281 32.3594 434.406 31.2578 432.828 29.8047C431.25 28.3516 430.055 26.6172 429.242 24.6016C428.445 22.5859 428.047 20.3125 428.047 17.7812C428.047 14.4531 428.812 11.5859 430.344 9.17969C431.891 6.75781 433.984 4.92188 436.625 3.67188C439.281 2.42188 442.25 1.79688 445.531 1.79688C448.719 1.79688 451.633 2.30469 454.273 3.32031ZM500.867 1.98438V34H496.297V19.3047H480.805V34H476.234V1.98438H480.805V15.4141H496.297V1.98438H500.867ZM527.352 1.98438V34H522.781V1.98438H527.352ZM558.781 1.98438V23.7344V26.2188C558.734 28 558.367 29.5 557.68 30.7188C557.008 31.9375 556.039 32.8594 554.773 33.4844C553.508 34.1094 551.961 34.4219 550.133 34.4219C549.242 34.4219 547.898 34.2344 546.102 33.8594V29.875C547.258 30.3281 548.375 30.5547 549.453 30.5547C550.578 30.5547 551.469 30.3203 552.125 29.8516C552.797 29.3828 553.281 28.7734 553.578 28.0234C553.875 27.2734 554.055 26.4844 554.117 25.6562C554.18 24.8281 554.211 23.8047 554.211 22.5859V1.98438H558.781Z" fill="black"/>
</svg>
