<svg width="89" height="90" viewBox="0 0 89 90" fill="none" xmlns="http://www.w3.org/2000/svg">
<path d="M28.5154 55.7C21.5821 55.7 16.0487 54.2667 11.9154 51.4C7.84874 48.4667 5.81541 44.6667 5.81541 40C5.81541 35.2 7.84874 31.3667 11.9154 28.5C16.0487 25.5667 21.5821 24.1 28.5154 24.1C35.4487 24.1 40.9487 25.5667 45.0154 28.5C49.0821 31.3667 51.1154 35.2 51.1154 40C51.1154 44.6667 49.0821 48.4667 45.0154 51.4C40.9487 54.2667 35.4487 55.7 28.5154 55.7ZM28.5154 49.2C32.4487 49.2 35.5821 48.3333 37.9154 46.6C40.3154 44.8667 41.5154 42.6667 41.5154 40C41.5154 37.2 40.3154 34.9333 37.9154 33.2C35.5821 31.4667 32.4487 30.6 28.5154 30.6C24.5154 30.6 21.3154 31.4667 18.9154 33.2C16.5154 34.9333 15.3154 37.2 15.3154 40C15.3154 42.6667 16.5154 44.8667 18.9154 46.6C21.3154 48.3333 24.5154 49.2 28.5154 49.2ZM23.1154 3C23.0487 2.13334 23.4487 1.66667 24.3154 1.6L32.5154 1.2C33.0487 1.13333 33.3821 1.2 33.5154 1.4C33.7154 1.53333 33.7821 1.86667 33.7154 2.4L32.8154 13.9H23.8154L23.1154 3ZM4.51541 20.2C3.64874 20.2667 3.08207 19.9 2.81541 19.1L0.915407 13.2C0.64874 12.3333 0.94874 11.9333 1.81541 12C4.41541 12.1333 7.44874 12.2333 10.9154 12.3C14.3821 12.3667 18.0154 12.4333 21.8154 12.5C25.6154 12.5 29.3487 12.5 33.0154 12.5C36.7487 12.5 40.1821 12.4667 43.3154 12.4C46.4487 12.2667 49.0487 12.1333 51.1154 12L45.5154 13.1L51.3154 10.1C52.0487 9.63334 52.6154 9.83333 53.0154 10.7C53.3487 11.5667 53.7154 12.6333 54.1154 13.9C54.5821 15.1 55.0154 16.4333 55.4154 17.9C55.5487 18.5 55.5821 18.9667 55.5154 19.3C55.4487 19.6333 55.1487 19.8333 54.6154 19.9C54.0821 19.9 53.2154 19.8667 52.0154 19.8C48.2821 19.5333 44.2487 19.3667 39.9154 19.3C35.5821 19.1667 31.2487 19.1 26.9154 19.1C22.5821 19.1 18.4821 19.2 14.6154 19.4C10.7487 19.5333 7.38207 19.8 4.51541 20.2ZM63.9154 66.7C63.0487 66.7667 62.6154 66.3667 62.6154 65.5V5.5L62.4154 1.4C62.4154 0.866667 62.5154 0.500004 62.7154 0.300003C62.9154 0.100002 63.2487 0 63.7154 0H73.8154C74.6821 0 74.9821 0.433332 74.7154 1.3C74.3821 1.83333 74.0487 2.4 73.7154 3C73.4487 3.53333 73.1154 4.06666 72.7154 4.6V63.8C72.7154 64.7333 72.4154 65.4 71.8154 65.8C71.2154 66.2 70.0487 66.4333 68.3154 66.5L63.9154 66.7ZM69.0154 40.6V33.6H79.9154L84.3154 31C84.7821 30.7333 85.1154 30.6333 85.3154 30.7C85.5821 30.7667 85.8154 31.0667 86.0154 31.6C86.5487 32.7333 87.0154 34.1 87.4154 35.7C87.8154 37.2333 88.0821 38.6333 88.2154 39.9C88.3487 40.7 87.9821 41.1 87.1154 41.1L69.0154 40.6ZM21.9154 90C21.0487 90.0667 20.6154 89.6667 20.6154 88.8V67.3L20.0154 62.2C19.8154 61.3333 20.1821 60.9 21.1154 60.9H31.4154C32.3487 60.9 32.6154 61.3 32.2154 62.1C32.0154 62.6333 31.7821 63.1333 31.5154 63.6C31.3154 64.0667 31.0821 64.5333 30.8154 65V86.8C30.8154 87.8 30.5154 88.5 29.9154 88.9C29.3154 89.3 28.1154 89.5667 26.3154 89.7L21.9154 90ZM28.5154 80.4C30.2487 80.4667 32.4487 80.5333 35.1154 80.6C37.8487 80.6667 40.8487 80.7 44.1154 80.7C47.3821 80.7 50.7154 80.6333 54.1154 80.5C57.5154 80.4333 60.7487 80.3333 63.8154 80.2C66.9487 80.0667 69.7154 79.9333 72.1154 79.8L66.8154 82.3L73.0154 77.9C73.7487 77.3667 74.4154 77.4 75.0154 78C76.0821 79 77.0487 80.1333 77.9154 81.4C78.7821 82.7333 79.5154 84.0333 80.1154 85.3C80.5154 86.2333 80.5487 86.8333 80.2154 87.1C79.9487 87.3667 78.9154 87.5667 77.1154 87.7C73.9821 87.8333 70.5487 87.9333 66.8154 88C63.0821 88.0667 59.2821 88.1 55.4154 88.1C51.5487 88.1 47.8487 88.0667 44.3154 88C40.8487 88 37.7487 87.9333 35.0154 87.8C32.3487 87.7333 30.2821 87.6333 28.8154 87.5L28.5154 80.4Z" fill="#181818"/>
</svg>
