<svg width="84" height="85" viewBox="0 0 84 85" fill="none" xmlns="http://www.w3.org/2000/svg">
<path d="M48.5918 31.5C48.5918 34.6333 47.8918 37.6 46.4918 40.4C45.0918 43.2 43.1251 45.5667 40.5918 47.5C38.3251 49.1667 35.8251 50.3333 33.0918 51C30.4251 51.6667 27.7251 51.9 24.9918 51.7C22.2585 51.5 19.6251 50.9 17.0918 49.9C14.5585 48.8333 12.2918 47.4333 10.2918 45.7C8.35846 43.9667 6.7918 41.9 5.5918 39.5C4.3918 37.1 3.7918 34.4333 3.7918 31.5C3.7918 28.8333 4.1918 26.4333 4.9918 24.3C5.7918 22.1667 6.8918 20.2667 8.2918 18.6H6.4918C4.82513 18.6 3.42513 18.1 2.2918 17.1C1.15846 16.0333 0.591797 14.7667 0.591797 13.3C0.591797 11.7667 1.15846 10.5 2.2918 9.5C3.42513 8.43333 4.82513 7.9 6.4918 7.9H19.6918V4.7C19.6918 3.36666 20.2585 2.26666 21.3918 1.4C22.5251 0.466667 23.8918 0 25.4918 0C27.0918 0 28.4585 0.466667 29.5918 1.4C30.7251 2.26666 31.2918 3.36666 31.2918 4.7V7.9H45.1918C46.8585 7.9 48.2585 8.43333 49.3918 9.5C50.5251 10.5 51.0918 11.7667 51.0918 13.3C51.0918 14.7667 50.5251 16.0333 49.3918 17.1C48.2585 18.1 46.8585 18.6 45.1918 18.6H43.9918C45.3918 20.2667 46.4918 22.1667 47.2918 24.3C48.1585 26.4333 48.5918 28.8333 48.5918 31.5ZM21.3918 84.1C18.6585 84.1 16.4585 83.5 14.7918 82.3C13.1251 81.1667 12.2918 79.8333 12.2918 78.3V63.9C12.1585 62.4333 12.1585 60.9333 12.2918 59.4C12.4251 58 12.9585 56.8667 13.8918 56C14.8918 55.1333 16.1585 54.7 17.6918 54.7C18.0251 54.7 18.6251 54.7333 19.4918 54.8C20.3585 54.8 20.9585 54.8667 21.2918 55C22.1585 55.2667 22.8251 55.6667 23.2918 56.2C23.8251 56.7333 24.2251 57.3667 24.4918 58.1C24.7585 58.7667 24.9251 59.5 24.9918 60.3C25.0585 61.0333 25.1251 61.7667 25.1918 62.5C25.1918 62.7667 25.1918 63.4 25.1918 64.4C25.2585 65.3333 25.2918 66.3667 25.2918 67.5C25.3585 68.5667 25.3918 69.5667 25.3918 70.5C25.4585 71.4333 25.5251 72 25.5918 72.2C25.7918 72.2667 26.3251 72.3667 27.1918 72.5C28.1251 72.5667 29.8251 72.6 32.2918 72.6C34.4251 72.6 35.7251 72.5667 36.1918 72.5C36.7251 72.4333 37.0251 72.4 37.0918 72.4H69.7918C69.7918 72.4 69.9918 72.4667 70.3918 72.6C70.8585 72.7333 71.3585 72.9667 71.8918 73.3C72.4251 73.5667 72.9251 73.9667 73.3918 74.5C73.8585 74.9667 74.1585 75.5333 74.2918 76.2C74.6251 78.7333 74.1918 80.7 72.9918 82.1C72.1918 83.0333 71.3251 83.6 70.3918 83.8C69.4585 84 68.9585 84.1 68.8918 84.1H21.3918ZM71.4918 36.1V49.2C71.4251 49.9333 71.3251 50.7 71.1918 51.5C71.0585 52.2333 70.7585 52.9667 70.2918 53.7C69.8251 54.5667 69.2251 55.2 68.4918 55.6C67.4251 56.3333 66.2585 56.7 64.9918 56.7C63.9251 56.7 62.9585 56.4333 62.0918 55.9C61.3585 55.5 60.7585 55 60.2918 54.4C59.8918 53.8 59.5585 53.2333 59.2918 52.7C59.0918 52.1667 58.9585 51.7 58.8918 51.3C58.8251 50.8333 58.7918 50.6 58.7918 50.6V12.5C58.7918 12.1667 58.8251 11.4333 58.8918 10.3C59.0251 9.1 59.2918 8.1 59.6918 7.3C60.4251 5.9 61.8918 5.1 64.0918 4.9C66.5585 4.56666 68.4585 5.06666 69.7918 6.4C70.1918 6.93333 70.4918 7.46666 70.6918 8C70.8918 8.46666 71.0585 8.96666 71.1918 9.5C71.3918 10.1667 71.4918 10.8667 71.4918 11.6C71.5585 12.3333 71.5585 13.0667 71.4918 13.8V24.9C71.7585 24.9 72.2918 24.9333 73.0918 25C73.8918 25.0667 74.7251 25.1333 75.5918 25.2C76.4585 25.2 77.2585 25.2333 77.9918 25.3C78.7918 25.3667 79.3251 25.4333 79.5918 25.5C80.9918 25.7667 81.9918 26.1667 82.5918 26.7C83.1918 27.1667 83.5918 27.7667 83.7918 28.5C83.9251 29.2333 83.9918 30.1 83.9918 31.1C83.9918 32.0333 83.7918 32.8333 83.3918 33.5C82.5251 34.8333 81.2585 35.6 79.5918 35.8C77.9251 36 76.0251 36.1 73.8918 36.1H71.4918ZM28.1918 40.4C30.3251 40 32.1585 39.0667 33.6918 37.6C35.2918 36.0667 36.0918 34.0333 36.0918 31.5C36.0918 29.5 35.5918 27.8333 34.5918 26.5C33.6585 25.1667 32.4585 24.1667 30.9918 23.5C29.5251 22.7667 27.9251 22.4 26.1918 22.4C24.4585 22.3333 22.8585 22.6333 21.3918 23.3C19.9251 23.9667 18.6918 25 17.6918 26.4C16.7585 27.7333 16.2918 29.4333 16.2918 31.5C16.2918 33.3 16.6585 34.8333 17.3918 36.1C18.1251 37.3667 19.0585 38.3667 20.1918 39.1C21.3251 39.8333 22.5918 40.3 23.9918 40.5C25.3918 40.7 26.7918 40.6667 28.1918 40.4Z" fill="#181818"/>
</svg>
