<svg width="513" height="142" viewBox="0 0 513 142" fill="none" xmlns="http://www.w3.org/2000/svg">
<path d="M412.027 0.59375H513.004V30.6719H449.137V56.2578H507.73V86.3359H449.137V111.922H512.809V142H412.027V0.59375Z" fill="black"/>
<path d="M285 0.59375H345.156C355.573 0.59375 364.72 2.67708 372.598 6.84375C380.54 10.9453 386.66 16.7396 390.957 24.2266C395.319 31.7135 397.5 40.3724 397.5 50.2031C397.5 60.1641 395.286 68.8555 390.859 76.2773C386.432 83.6992 380.182 89.4284 372.109 93.4648C364.036 97.4362 354.661 99.4219 343.984 99.4219H322.109V142H285V0.59375ZM336.562 70.5156C343.529 70.5156 348.932 68.7253 352.773 65.1445C356.68 61.4987 358.633 56.5182 358.633 50.2031C358.633 44.0182 356.68 39.168 352.773 35.6523C348.932 32.0716 343.529 30.2812 336.562 30.2812H322.109V70.5156H336.562Z" fill="black"/>
<path d="M172.77 0.59375L200.895 58.4062H202.066L230.387 0.59375H271.988L220.035 96.6875V142H183.121V96.6875L131.168 0.59375H172.77Z" fill="black"/>
<path d="M0.503906 0.59375H122.379V30.6719H79.8008V142H43.082V30.6719H0.503906V0.59375Z" fill="black"/>
</svg>
