<svg width="66" height="72" viewBox="0 0 66 72" fill="none" xmlns="http://www.w3.org/2000/svg">
<path d="M0.717578 72V67.5C2.71758 67.5 4.25091 66.9667 5.31758 65.9C6.38425 64.8333 7.28425 63.4 8.01758 61.6C8.75091 59.7333 9.55091 57.6667 10.4176 55.4L30.6176 0.0999959H34.6176L56.5176 56.2C57.0509 57.4667 57.6509 59.2 58.3176 61.4C58.9842 63.5333 59.2842 65.3667 59.2176 66.9C60.3509 66.7667 61.4509 66.7 62.5176 66.7C63.6509 66.6333 64.7176 66.5667 65.7176 66.5V72H41.4176V67.6C43.7509 67.5333 45.2842 67.0333 46.0176 66.1C46.8176 65.1 47.1176 63.9 46.9176 62.5C46.7842 61.1 46.4509 59.7 45.9176 58.3L42.9176 50.2L18.4176 50.8L15.5176 59.5C15.1176 60.8333 14.6842 62.1 14.2176 63.3C13.7509 64.5 13.2842 65.6667 12.8176 66.8C14.0176 66.6667 15.2842 66.6 16.6176 66.6C18.0176 66.5333 19.2509 66.4667 20.3176 66.4V72H0.717578ZM20.2176 45.4H41.2176L34.9176 28.5C34.1176 26.3 33.3509 24.1333 32.6176 22C31.8842 19.8 31.2176 17.7 30.6176 15.7H30.5176C29.9842 17.3667 29.3842 19.2 28.7176 21.2C28.0509 23.2 27.2842 25.3667 26.4176 27.7L20.2176 45.4Z" fill="#181818"/>
</svg>
