<svg width="89" height="94" viewBox="0 0 89 94" fill="none" xmlns="http://www.w3.org/2000/svg">
<path d="M32.2879 10.3H54.3879V18.7H0.0878906V10.3H22.1879V0H32.2879V10.3ZM74.1879 1.1V28.2H88.5879V37.3H74.1879V71.5H64.1879V1.1H74.1879ZM50.2879 43.1C50.2879 48.5667 48.1212 52.8667 43.7879 56C39.5212 59.0667 34.0546 60.6 27.3879 60.6C20.7212 60.6 15.2212 59.0667 10.8879 56C6.55456 52.8667 4.38789 48.5667 4.38789 43.1V41.6C4.38789 36.0667 6.52122 31.8 10.7879 28.8C15.1212 25.7333 20.6546 24.2 27.3879 24.2C34.0546 24.2 39.5212 25.7333 43.7879 28.8C48.1212 31.8 50.2879 36.0667 50.2879 41.6V43.1ZM14.1879 42.9C14.1879 45.7667 15.4212 48.0333 17.8879 49.7C20.3546 51.3667 23.5212 52.2 27.3879 52.2C31.1879 52.2 34.3212 51.3667 36.7879 49.7C39.3212 47.9667 40.5879 45.7 40.5879 42.9V41.8C40.5879 39 39.3212 36.7667 36.7879 35.1C34.3212 33.4333 31.1879 32.6 27.3879 32.6C23.5879 32.6 20.4212 33.4333 17.8879 35.1C15.4212 36.7667 14.1879 39 14.1879 41.8V42.9ZM14.6879 68.2H24.6879V84.8H78.9879V93.9H14.6879V68.2Z" fill="#181818"/>
</svg>
