<svg width="67" height="72" viewBox="0 0 67 72" fill="none" xmlns="http://www.w3.org/2000/svg">
<path d="M35.2199 0.799999L59.6199 63.6C60.5533 66.0667 61.6199 67.7333 62.8199 68.6C64.0866 69.4667 65.2533 69.9333 66.3199 70V72C64.7199 71.8667 62.8199 71.8 60.6199 71.8C58.4866 71.7333 56.3199 71.7 54.1199 71.7C51.3199 71.7 48.7199 71.7333 46.3199 71.8C43.9199 71.8 41.9866 71.8667 40.5199 72V70C43.9199 69.8667 46.0533 69.3 46.9199 68.3C47.8533 67.2333 47.6533 65 46.3199 61.6L28.3199 13L29.9199 11.2L13.3199 54.6C12.1199 57.6 11.3866 60.1 11.1199 62.1C10.9199 64.1 11.0866 65.6667 11.6199 66.8C12.2199 67.9333 13.2199 68.7333 14.6199 69.2C16.0199 69.6667 17.7533 69.9333 19.8199 70V72C17.8199 71.8667 15.7866 71.8 13.7199 71.8C11.7199 71.7333 9.81992 71.7 8.01992 71.7C6.41992 71.7 4.98659 71.7333 3.71992 71.8C2.51992 71.8 1.41992 71.8667 0.419922 72V70C1.81992 69.6667 3.21992 68.8333 4.61992 67.5C6.01992 66.1667 7.35326 63.9 8.61992 60.7L31.8199 0.799999C32.3533 0.799999 32.9199 0.799999 33.5199 0.799999C34.1199 0.799999 34.6866 0.799999 35.2199 0.799999ZM45.7199 43.2V45.2H15.9199L16.9199 43.2H45.7199Z" fill="#181818"/>
</svg>
