<svg width="84" height="89" viewBox="0 0 84 89" fill="none" xmlns="http://www.w3.org/2000/svg">
<path d="M53.5041 18.6H0.204102V10.4H21.7041V0H32.0041V10.4H53.5041V18.6ZM83.4041 28.9V37.4H70.6041V67.8H60.3041V0.0999994H70.6041V28.9H83.4041ZM48.7041 39.9C48.7041 50.3 39.8041 57 26.8041 57C13.9041 57 4.9041 50.3 4.9041 39.9C4.9041 29.8 13.9041 22.8 26.8041 22.8C39.8041 22.8 48.7041 29.8 48.7041 39.9ZM14.8041 39.9C14.8041 45.6 19.6041 49 26.8041 49C34.0041 49 38.9041 45.6 38.9041 39.9C38.9041 34.2 34.0041 30.8 26.8041 30.8C19.6041 30.8 14.8041 34.2 14.8041 39.9ZM23.8041 80.3H74.2041V88.7H13.4041V62.6H23.8041V80.3Z" fill="#181818"/>
</svg>
