<svg width="872" height="57" viewBox="0 0 872 57" fill="none" xmlns="http://www.w3.org/2000/svg">
<path d="M15.0625 4.1875C17.8958 4.1875 20.4167 5.01042 22.625 6.65625C24.8333 8.28125 26.5625 10.6042 27.8125 13.625C29.0833 16.625 29.7292 20.125 29.75 24.125C29.7292 28.1667 29.0833 31.6979 27.8125 34.7188C26.5625 37.7396 24.8333 40.0625 22.625 41.6875C20.4167 43.3125 17.8958 44.125 15.0625 44.125C12.2083 44.125 9.66667 43.3125 7.4375 41.6875C5.20833 40.0417 3.46875 37.7083 2.21875 34.6875C0.96875 31.6667 0.354167 28.1458 0.375 24.125C0.354167 20.1458 0.96875 16.6458 2.21875 13.625C3.46875 10.6042 5.20833 8.28125 7.4375 6.65625C9.66667 5.01042 12.2083 4.1875 15.0625 4.1875ZM15.0625 10.4375C13.4792 10.4375 12.0833 10.9896 10.875 12.0938C9.66667 13.1771 8.72917 14.75 8.0625 16.8125C7.39583 18.8542 7.0625 21.2917 7.0625 24.125C7.0625 26.9792 7.39583 29.4375 8.0625 31.5C8.72917 33.5625 9.66667 35.1458 10.875 36.25C12.0833 37.3333 13.4792 37.875 15.0625 37.875C16.6667 37.875 18.0729 37.3333 19.2812 36.25C20.4896 35.1458 21.4167 33.5625 22.0625 31.5C22.7292 29.4375 23.0625 26.9792 23.0625 24.125C23.0625 21.2917 22.7292 18.8438 22.0625 16.7812C21.4167 14.7188 20.4896 13.1458 19.2812 12.0625C18.0729 10.9792 16.6667 10.4375 15.0625 10.4375ZM44.125 21.75H52.8125V27.625H44.125V56.5625H37.1875V0.0625H44.125V21.75ZM101.062 32.125H61.4375V5H100.625V10.625H68.3125V26.5625H101.062V32.125ZM106.812 49.375H55.1875V43.625H106.812V49.375ZM157.562 56.625H150.688V0.0625H157.562V56.625ZM140.188 26.1875H120.75V37.5625C125.521 37.5208 129.896 37.3542 133.875 37.0625C137.875 36.7708 141.958 36.2708 146.125 35.5625L146.75 41.25C142.271 42.0417 137.865 42.5729 133.531 42.8438C129.198 43.1146 124.208 43.25 118.562 43.25H113.625V20.6875H133.125V10.625H113.562V5H140.188V26.1875ZM210.375 16.625H218.25V22.375H210.375V41.375H203.438V0.0625H210.375V16.625ZM212.625 55.4375H174.188V37.0625H181.125V49.8125H212.625V55.4375ZM181.688 3.8125C184.521 3.8125 187.094 4.42708 189.406 5.65625C191.719 6.86458 193.542 8.55208 194.875 10.7188C196.229 12.8854 196.917 15.3333 196.938 18.0625C196.917 20.75 196.229 23.1771 194.875 25.3438C193.542 27.4896 191.708 29.1771 189.375 30.4062C187.062 31.6354 184.5 32.25 181.688 32.25C178.854 32.25 176.271 31.6354 173.938 30.4062C171.604 29.1771 169.76 27.4896 168.406 25.3438C167.073 23.1771 166.417 20.75 166.438 18.0625C166.417 15.3542 167.073 12.9167 168.406 10.75C169.76 8.5625 171.604 6.86458 173.938 5.65625C176.271 4.42708 178.854 3.8125 181.688 3.8125ZM181.688 9.875C180.104 9.875 178.667 10.2188 177.375 10.9062C176.083 11.5729 175.062 12.5312 174.312 13.7812C173.583 15.0104 173.229 16.4375 173.25 18.0625C173.229 19.6458 173.583 21.0521 174.312 22.2812C175.062 23.5104 176.083 24.4583 177.375 25.125C178.667 25.7917 180.104 26.125 181.688 26.125C183.271 26.125 184.698 25.7917 185.969 25.125C187.26 24.4583 188.271 23.5104 189 22.2812C189.75 21.0521 190.125 19.6458 190.125 18.0625C190.125 16.4375 189.75 15.0104 189 13.7812C188.271 12.5312 187.26 11.5729 185.969 10.9062C184.698 10.2188 183.271 9.875 181.688 9.875ZM287.938 49.75H236.312V43.9375H287.938V49.75ZM283.438 10.875H275.188V28.875H283.25V34.375H240.75V28.875H248.688V10.875H240.562V5.3125H283.438V10.875ZM268.312 28.875V10.875H255.625V28.875H268.312ZM337.188 18.0625H304.75V23.6875H338.438V29.25H297.75V12.8125H330.062V7.625H297.625V2H337.188V18.0625ZM343.188 39.625H320.75V56.625H313.812V39.625H291.562V34.0625H343.188V39.625ZM378.5 10.625H357.062V20.6875H376.25V26.1875H357.062V37.8125C362.062 37.7917 366.427 37.6667 370.156 37.4375C373.885 37.1875 377.667 36.75 381.5 36.125L382.188 41.75C377.979 42.3958 373.792 42.8438 369.625 43.0938C365.458 43.3229 360.562 43.4375 354.938 43.4375H350.188V4.9375H378.5V10.625ZM394.125 56.5625H387.125V0.0625H394.125V56.5625ZM449.562 56.5625H442.625V27.8125H430.688V22.125H442.625V0.0625H449.562V56.5625ZM430.938 6.0625C430.917 11.9375 430.104 17.3021 428.5 22.1562C426.917 27.0104 424.25 31.4896 420.5 35.5938C416.771 39.6771 411.771 43.2708 405.5 46.375L401.875 40.9375C409.021 37.4375 414.333 33.2917 417.812 28.5C421.292 23.7083 423.333 18.0625 423.938 11.5625H404.5V6.0625H430.938ZM501.812 22.125H510.188V27.9375H501.812V56.4375H494.875V0.0625H501.812V22.125ZM486.875 5.9375C486.875 24.4792 478.312 37.9583 461.188 46.375L457.25 41C464.125 37.5833 469.427 33.4479 473.156 28.5938C476.906 23.7396 479.135 18.1042 479.844 11.6875H460.312V5.9375H486.875ZM576.688 56.5625H570.062V0.0625H576.688V56.5625ZM565.188 53.8125H558.625V25.375H550.5V19.75H558.625V1.125H565.188V53.8125ZM545.5 15.5C545.5 18.8125 545.906 21.9896 546.719 25.0312C547.552 28.0729 548.823 30.8333 550.531 33.3125C552.26 35.7917 554.417 37.7708 557 39.25L552.875 44.375C550.333 42.8542 548.177 40.8229 546.406 38.2812C544.635 35.7188 543.24 32.7708 542.219 29.4375C541.198 33.0417 539.771 36.25 537.938 39.0625C536.104 41.8542 533.896 44.0625 531.312 45.6875L527.062 40.5C529.688 38.9167 531.875 36.8021 533.625 34.1562C535.396 31.5104 536.698 28.5938 537.531 25.4062C538.385 22.1979 538.812 18.8958 538.812 15.5V11.75H529V6.125H554.625V11.75H545.5V15.5ZM603.625 9.875C603.625 12.2292 604.125 14.5104 605.125 16.7188C606.146 18.9062 607.656 20.8646 609.656 22.5938C611.677 24.3229 614.125 25.6667 617 26.625L613.5 32C610.417 30.9792 607.75 29.4688 605.5 27.4688C603.25 25.4479 601.49 23.0833 600.219 20.375C598.948 23.3333 597.135 25.9062 594.781 28.0938C592.448 30.2604 589.667 31.8958 586.438 33L582.75 27.625C585.708 26.6458 588.229 25.25 590.312 23.4375C592.396 21.6042 593.969 19.5208 595.031 17.1875C596.094 14.8333 596.625 12.3958 596.625 9.875V9.1875H584.688V3.625H615.375V9.1875H603.625V9.875ZM627.938 14.1875H635.812V20H627.938V34.125H621V0.0625H627.938V14.1875ZM627.938 56.5625H621V42.3125H590.312V36.75H627.938V56.5625ZM683.25 17.875H691.125V23.625H683.25V42.3125H676.312V0.125H683.25V17.875ZM672.25 11.9375H638.75V6.375H652.062V0.0625H659V6.375H672.25V11.9375ZM655.5 14.25C658.188 14.25 660.573 14.6979 662.656 15.5938C664.74 16.4896 666.365 17.7604 667.531 19.4062C668.698 21.0312 669.292 22.9167 669.312 25.0625C669.292 27.1875 668.698 29.0625 667.531 30.6875C666.365 32.2917 664.74 33.5417 662.656 34.4375C660.573 35.3125 658.188 35.75 655.5 35.75C652.792 35.75 650.385 35.3125 648.281 34.4375C646.177 33.5417 644.542 32.2917 643.375 30.6875C642.208 29.0625 641.625 27.1875 641.625 25.0625C641.625 22.9167 642.208 21.0312 643.375 19.4062C644.542 17.7604 646.177 16.4896 648.281 15.5938C650.385 14.6979 652.792 14.25 655.5 14.25ZM655.5 19.625C653.312 19.625 651.573 20.1042 650.281 21.0625C649.01 22.0208 648.375 23.3542 648.375 25.0625C648.375 26.7292 649.021 28.0417 650.312 29C651.604 29.9583 653.333 30.4167 655.5 30.375C657.667 30.4167 659.406 29.9583 660.719 29C662.031 28.0417 662.688 26.7292 662.688 25.0625C662.688 23.3542 662.031 22.0208 660.719 21.0625C659.427 20.1042 657.688 19.625 655.5 19.625ZM685.5 55.4375H647.062V39H654V49.8125H685.5V55.4375ZM730.062 13.625C730.062 17.1667 730.604 20.5938 731.688 23.9062C732.792 27.1979 734.396 30.1146 736.5 32.6562C738.625 35.1979 741.146 37.1042 744.062 38.375L739.875 43.9375C736.75 42.4167 734.052 40.2292 731.781 37.375C729.531 34.5208 727.792 31.2083 726.562 27.4375C725.292 31.4375 723.5 34.9583 721.188 38C718.896 41.0417 716.167 43.375 713 45L708.625 39.375C711.604 37.9792 714.167 35.9375 716.312 33.25C718.479 30.5625 720.125 27.5104 721.25 24.0938C722.396 20.6771 722.979 17.1875 723 13.625V4.625H730.062V13.625ZM756.562 56.625H749.688V23.9375H737.812V18.3125H749.688V0.0625H756.562V56.625ZM781.75 17.3125C781.75 20.3125 782.167 23.2188 783 26.0312C783.854 28.8229 785.135 31.3646 786.844 33.6562C788.573 35.9271 790.708 37.75 793.25 39.125L789.375 44.25C786.833 42.8958 784.656 41.0417 782.844 38.6875C781.031 36.3333 779.604 33.625 778.562 30.5625C777.521 33.8958 776.083 36.8542 774.25 39.4375C772.438 42 770.25 44.0417 767.688 45.5625L763.625 40.3125C766.188 38.8333 768.333 36.875 770.062 34.4375C771.812 31.9792 773.104 29.2812 773.938 26.3438C774.771 23.4062 775.188 20.3958 775.188 17.3125V15.5625H765.562V9.9375H775.188V2.0625H781.75V9.9375H791.188V15.5625H781.75V17.3125ZM813.125 56.5625H806.5V0.0625H813.125V56.5625ZM801.625 53.8125H795.062V27.5H787.688V21.75H795.062V1.125H801.625V53.8125ZM871.375 28.1875H819.812V22.6875H871.375V28.1875ZM865.25 19.0625H826.375V1.5H864.75V7.0625H833.312V13.5625H865.25V19.0625ZM864.875 46.25H832.75V50.5625H866.438V56H825.938V41.25H858.062V37.3125H825.875V32.0625H864.875V46.25Z" fill="black"/>
</svg>
