<svg width="595" height="37" viewBox="0 0 595 37" fill="none" xmlns="http://www.w3.org/2000/svg">
<path d="M5.25781 1.33594V23.4141C5.25781 26.3047 6.08594 28.5312 7.74219 30.0938C9.39844 31.6562 11.7422 32.4375 14.7734 32.4375C17.7734 32.4375 20.0703 31.6641 21.6641 30.1172C23.2734 28.5703 24.0781 26.1641 24.0781 22.8984V1.33594H28.7422V23.0391C28.7422 27.2422 27.4531 30.5781 24.875 33.0469C22.3125 35.5 18.9297 36.7266 14.7266 36.7266C11.8672 36.7266 9.27344 36.1484 6.94531 34.9922C4.61719 33.8203 2.95312 32.2891 1.95312 30.3984C0.953125 28.5078 0.453125 25.9766 0.453125 22.8047V1.33594H5.25781ZM58.6953 36H54.1016V20.2031C54.1016 18.5156 53.5703 17.2188 52.5078 16.3125C51.4453 15.3906 50.1172 14.9297 48.5234 14.9297C46.7109 14.9297 45.2109 15.5938 44.0234 16.9219C42.8359 18.2344 42.2422 19.9219 42.2422 21.9844V36H37.7188V13.6641C37.7188 13.1953 37.7031 12.6094 37.6719 11.9062H42.1953C42.2266 12.8906 42.2422 13.7031 42.2422 14.3438V15.7969C42.9922 14.3281 44.0156 13.2344 45.3125 12.5156C46.6094 11.7812 48.1641 11.4141 49.9766 11.4141C52.5234 11.4141 54.6094 12.1406 56.2344 13.5938C57.875 15.0469 58.6953 17.0469 58.6953 19.5938V36ZM71.9141 1.42969V6.375H66.5V1.42969H71.9141ZM71.4922 11.9062V36H66.9688V11.9062H71.4922ZM81.6875 11.9062L89.3516 31.0078L96.8516 11.9062H101.844L91.2734 36H86.7266L76.6484 11.9062H81.6875ZM126.078 24.7734H108.758V25.1484C108.758 27.7422 109.359 29.7734 110.562 31.2422C111.766 32.7109 113.469 33.4453 115.672 33.4453C117.281 33.4453 118.586 33.0234 119.586 32.1797C120.586 31.3203 121.172 30.0781 121.344 28.4531H125.844C125.688 30.9062 124.672 32.8984 122.797 34.4297C120.938 35.9609 118.5 36.7266 115.484 36.7266C111.797 36.7266 109.008 35.6484 107.117 33.4922C105.227 31.3359 104.281 28.2344 104.281 24.1875C104.281 20.0156 105.273 16.8203 107.258 14.6016C109.242 12.3828 112.047 11.2734 115.672 11.2734C119.125 11.2734 121.719 12.2422 123.453 14.1797C125.203 16.1172 126.078 19.0078 126.078 22.8516V24.7734ZM121.484 21.6094V21.2578C121.484 19.1172 120.992 17.4531 120.008 16.2656C119.023 15.0781 117.531 14.4844 115.531 14.4844C113.578 14.4844 111.992 15.1406 110.773 16.4531C109.555 17.75 108.945 19.4688 108.945 21.6094H121.484ZM146.281 11.7188V16.125C146.016 16.0312 145.727 15.9688 145.414 15.9375C145.102 15.9062 144.719 15.8906 144.266 15.8906C141.984 15.8906 140.289 16.4531 139.18 17.5781C138.086 18.6875 137.539 20.4922 137.539 22.9922V36H132.969V15.7969L132.922 14.6484L132.734 11.9062H137.305L137.375 14.7891C137.375 15.5703 137.383 16.1641 137.398 16.5703C137.789 14.9922 138.648 13.7812 139.977 12.9375C141.305 12.0938 142.969 11.6719 144.969 11.6719L146.281 11.7188ZM168.477 18.5859H163.883V18.2812C163.883 17.1094 163.492 16.2109 162.711 15.5859C161.945 14.9609 160.781 14.6484 159.219 14.6484C157.656 14.6484 156.445 14.9453 155.586 15.5391C154.742 16.1172 154.32 16.9688 154.32 18.0938C154.32 19.5781 155.297 20.5547 157.25 21.0234L162.828 22.4062C164.953 22.9375 166.531 23.7188 167.562 24.75C168.594 25.7812 169.109 27.1797 169.109 28.9453C169.109 31.2266 168.242 33.0859 166.508 34.5234C164.789 35.9609 162.234 36.6797 158.844 36.6797C155.781 36.6797 153.422 36.0078 151.766 34.6641C150.109 33.3047 149.281 31.3672 149.281 28.8516H154.039C154.039 30.2266 154.492 31.2969 155.398 32.0625C156.305 32.8281 157.625 33.2109 159.359 33.2109C160.938 33.2109 162.156 32.875 163.016 32.2031C163.875 31.5312 164.305 30.6016 164.305 29.4141C164.305 28.2578 163.852 27.4609 162.945 27.0234C162.055 26.5703 160.75 26.1719 159.031 25.8281C157.312 25.4844 155.75 25.0625 154.344 24.5625C152.938 24.0625 151.82 23.3438 150.992 22.4062C150.18 21.4688 149.773 20.2109 149.773 18.6328C149.773 16.5078 150.625 14.7578 152.328 13.3828C154.047 12.0078 156.328 11.3203 159.172 11.3203C161.812 11.3203 164.023 11.8594 165.805 12.9375C167.586 14 168.477 15.6562 168.477 17.9062V18.5859ZM202.344 1.33594L216.359 36H211.133L207.383 26.9766H191.305L187.555 36H182.609L197.211 1.33594H202.344ZM192.852 23.0859H205.953L199.555 6.09375L192.852 23.0859ZM247.508 1.33594C250.492 1.33594 252.68 1.72656 254.07 2.50781C255.477 3.28906 256.539 4.33594 257.258 5.64844C257.992 6.94531 258.359 8.42188 258.359 10.0781C258.359 11.9844 257.891 13.5938 256.953 14.9062C256.031 16.2031 254.547 17.2031 252.5 17.9062C254.891 18.5625 256.641 19.6094 257.75 21.0469C258.859 22.4688 259.414 24.3047 259.414 26.5547C259.414 29.1641 258.516 31.3906 256.719 33.2344C254.938 35.0781 252.188 36 248.469 36H234.805V1.33594H247.508ZM246.359 15.9844C248.75 15.9844 250.516 15.5156 251.656 14.5781C252.797 13.625 253.367 12.2734 253.367 10.5234C253.367 8.71094 252.844 7.38281 251.797 6.53906C250.75 5.69531 249.133 5.27344 246.945 5.27344H239.445V15.9844H246.359ZM247.812 32.1094C249.812 32.1094 251.422 31.5625 252.641 30.4688C253.859 29.375 254.469 27.9219 254.469 26.1094C254.469 24.3281 253.867 22.8828 252.664 21.7734C251.461 20.6641 249.875 20.1094 247.906 20.1094H239.445V32.1094H247.812ZM298.32 10.7109C298.055 8.71094 297.273 7.21094 295.977 6.21094C294.695 5.21094 292.984 4.71094 290.844 4.71094C287.672 4.71094 285.234 5.9375 283.531 8.39062C281.844 10.8438 281 14.3828 281 19.0078C281 23.4766 281.828 26.8594 283.484 29.1562C285.141 31.4531 287.578 32.6016 290.797 32.6016C292.844 32.6016 294.492 32.1172 295.742 31.1484C297.008 30.1641 297.789 28.7422 298.086 26.8828H303.359C303 29.8984 301.633 32.2656 299.258 33.9844C296.898 35.6875 293.93 36.5391 290.352 36.5391C285.758 36.5391 282.195 34.9844 279.664 31.875C277.133 28.7656 275.867 24.4922 275.867 19.0547C275.867 13.5547 277.188 9.14844 279.828 5.83594C282.469 2.52344 286.203 0.867188 291.031 0.867188C294.422 0.867188 297.266 1.6875 299.562 3.32812C301.875 4.95312 303.172 7.41406 303.453 10.7109H298.32ZM334.039 1.33594C338.117 1.33594 341.273 1.9375 343.508 3.14062C345.742 4.32812 347.562 6.33594 348.969 9.16406C350.375 11.9766 351.078 15.2422 351.078 18.9609C351.078 21.7266 350.656 24.2656 349.812 26.5781C348.969 28.875 347.844 30.7266 346.438 32.1328C345.047 33.5391 343.477 34.5391 341.727 35.1328C339.992 35.7109 337.273 36 333.57 36H322.812V1.33594H334.039ZM332.656 32.0625C336.016 32.0625 338.547 31.6562 340.25 30.8438C341.953 30.0156 343.328 28.5859 344.375 26.5547C345.422 24.5078 345.945 22.0391 345.945 19.1484C345.945 15.2422 345.094 11.9609 343.391 9.30469C341.688 6.64844 338.508 5.32031 333.852 5.32031H327.617V32.0625H332.656ZM392.023 1.33594V5.41406H375.078V16.2188H391.227V20.25H375.078V31.7812H392.422V36H370.297V1.33594H392.023ZM434.539 1.33594V5.41406H418.789V16.2188H433.625V20.25H418.789V36H413.914V1.33594H434.539ZM474.734 9.98438C474.438 8.21875 473.594 6.875 472.203 5.95312C470.812 5.03125 469.047 4.57031 466.906 4.57031C462.797 4.57031 459.844 5.97656 458.047 8.78906C456.266 11.5859 455.375 14.8672 455.375 18.6328C455.375 21.4141 455.812 23.9609 456.688 26.2734C457.578 28.5859 458.93 30.2734 460.742 31.3359C462.555 32.3984 464.914 32.9297 467.82 32.9297C469.086 32.9297 470.32 32.8516 471.523 32.6953C472.727 32.5234 473.984 32.2344 475.297 31.8281V21.5625H467.375V17.5781H480.102V34.6641C478.055 35.3672 476.016 35.8906 473.984 36.2344C471.969 36.5938 469.914 36.7734 467.82 36.7734C461.867 36.7734 457.461 35.1172 454.602 31.8047C451.758 28.4766 450.336 24.2891 450.336 19.2422C450.336 14.1172 451.742 9.75781 454.555 6.16406C457.367 2.57031 461.656 0.773438 467.422 0.773438C471.078 0.773438 474.047 1.61719 476.328 3.30469C478.625 4.97656 479.836 7.20312 479.961 9.98438H474.734ZM506.773 1.33594V16.2188H523.227V1.33594H528.031V36H523.227V20.3438H506.773V36H501.969V1.33594H506.773ZM554.82 1.33594V36H550.016V1.33594H554.82ZM594.266 1.33594V26.9766C594.266 29.7734 593.227 32.0703 591.148 33.8672C589.086 35.6484 586.602 36.5391 583.695 36.5391C580.539 36.5391 578.055 35.7031 576.242 34.0312C574.43 32.3438 573.523 30.0078 573.523 27.0234V26.6016H578.609C578.609 28.0859 578.781 29.2031 579.125 29.9531C579.469 30.7031 580.055 31.3125 580.883 31.7812C581.711 32.25 582.711 32.4844 583.883 32.4844C585.43 32.4844 586.742 32.0078 587.82 31.0547C588.914 30.0859 589.461 28.375 589.461 25.9219V1.33594H594.266Z" fill="black"/>
</svg>
